# xmcd CD database file
#
# Track frame offsets:
#	150
#	16084
#	30475
#	44839
#	63805
#	77904
#	97797
#	117551
#	136277
#	155629
#	186154
#	203034
#
# Disc length: 3026 seconds
#
# Revision: 2
# Processed by: cddbd v1.4b41PL1 Copyright (c) Steve Scherf et al.
# Submitted via: Feurio! 1.50.2ß - http://www.feurio.com
#
DISCID=9a0bd00c
DTITLE=Reverend Jones - hell is boiling over
DYEAR=1900
DGENRE=
TTITLE0=Building Soul
TTITLE1=Rock´n Roll Baby
TTITLE2=In my time of dying
TTITLE3=Zonk Out
TTITLE4=HAL is boiling over
TTITLE5=fix up a string on a bone
TTITLE6=Straight Baby
TTITLE7=Wet
TTITLE8=Interstate Blues
TTITLE9=Wannabehappy
TTITLE10=Tittie-a-gogo
TTITLE11=llaberif
EXTD=
EXTT0=
EXTT1=
EXTT2=
EXTT3=
EXTT4=
EXTT5=
EXTT6=
EXTT7=
EXTT8=
EXTT9=
EXTT10=
EXTT11=
PLAYORDER=
